# xmcd CD database file
#
# Track frame offsets:
#	150
#	18270
#	37296
#	55532
#	74380
#	100184
#	121915
#	142218
#	160333
#	178657
#	185567
#
# Disc length: 2715 seconds
#
# Revision: 2
# Processed by: cddbd v1.4b41PL1 Copyright (c) Steve Scherf et al.
# Submitted via: Feurio! 1.50.2ß - http://www.feurio.com
#
DISCID=9c0a990b
DTITLE=Christina Aguilera - My Kind Of Christmas
DYEAR=1900
DGENRE=
TTITLE0=Christmas Time
TTITLE1=This Year
TTITLE2=Have Yourself A Merry Little Xmas
TTITLE3=Angels We'ave Heard On High
TTITLE4=Merry Christmas Baby
TTITLE5=Oh Holy Night
TTITLE6=These Are The Special Times
TTITLE7=This Christmas
TTITLE8=The Christmas Song
TTITLE9=Christina's Xmas
TTITLE10=The Christmas Song (Holiday Remix)
EXTD=
EXTT0=(c) MaKueh Records
EXTT1=(c) MaKueh Records
EXTT2=(c) MaKueh Records
EXTT3=(c) MaKueh Records
EXTT4=(c) MaKueh Records
EXTT5=(c) MaKueh Records
EXTT6=(c) MaKueh Records
EXTT7=(c) MaKueh Records
EXTT8=(c) MaKueh Records
EXTT9=(c) MaKueh Records
EXTT10=(c) MaKueh Records
PLAYORDER=
